HIERARCHY
ROOT Hips
{
	OFFSET -14.64140 90.27770 -84.91600
	CHANNELS 6 Xposition Yposition Zposition Zrotation Xrotation Yrotation
	JOINT Spine
	{
		OFFSET 0.00000 13.20850 -1.60436
		CHANNELS 3 Zrotation Xrotation Yrotation
		JOINT Spine1
		{
			OFFSET 0.00000 8.61716 0.00000
			CHANNELS 3 Zrotation Xrotation Yrotation
			JOINT Spine2
			{
				OFFSET 0.00000 8.61717 0.00000
				CHANNELS 3 Zrotation Xrotation Yrotation
				JOINT Spine3
				{
					OFFSET 0.00000 8.61717 0.00000
					CHANNELS 3 Zrotation Xrotation Yrotation
					JOINT Neck
					{
						OFFSET 0.00000 11.07920 1.10792
						CHANNELS 3 Zrotation Xrotation Yrotation
						JOINT Neck1
						{
							OFFSET 0.00000 7.08032 0.00000
							CHANNELS 3 Zrotation Xrotation Yrotation
							JOINT Head
							{
								OFFSET 0.00000 7.08031 0.00000
								CHANNELS 3 Zrotation Xrotation Yrotation
								End site
								{
									OFFSET 0.00000 0.00000 0.00000
								}
							}
						}
					}
					JOINT RightShoulder
					{
						OFFSET -0.01000 7.91373 5.19711
						CHANNELS 3 Zrotation Xrotation Yrotation
						JOINT RightArm
						{
							OFFSET -18.41580 0.00000 0.00000
							CHANNELS 3 Zrotation Xrotation Yrotation
							JOINT RightForeArm
							{
								OFFSET -29.11090 0.00000 0.00000
								CHANNELS 3 Zrotation Xrotation Yrotation
								JOINT RightHand
								{
									OFFSET -24.65040 0.00000 0.00000
									CHANNELS 3 Zrotation Xrotation Yrotation
									JOINT RightHandThumb1
									{
										OFFSET -5.35114 -0.85590 3.97906
										CHANNELS 3 Zrotation Xrotation Yrotation
										JOINT RightHandThumb2
										{
											OFFSET -4.52789 0.00000 0.00000
											CHANNELS 3 Zrotation Xrotation Yrotation
											JOINT RightHandThumb3
											{
												OFFSET -2.46976 0.00000 0.00000
												CHANNELS 3 Zrotation Xrotation Yrotation
												End site
												{
													OFFSET 0.00000 0.00000 0.00000
												}
											}
										}
									}
									JOINT RightHandIndex1
									{
										OFFSET -14.26970 0.00000 2.88139
										CHANNELS 3 Zrotation Xrotation Yrotation
										JOINT RightHandIndex2
										{
											OFFSET -5.48836 0.00000 0.00000
											CHANNELS 3 Zrotation Xrotation Yrotation
											JOINT RightHandIndex3
											{
												OFFSET -3.01859 0.00000 0.00000
												CHANNELS 3 Zrotation Xrotation Yrotation
												End site
												{
													OFFSET 0.00000 0.00000 0.00000
												}
											}
										}
									}
									JOINT RightHandMiddle1
									{
										OFFSET -14.26970 0.00000 -0.09147
										CHANNELS 3 Zrotation Xrotation Yrotation
										JOINT RightHandMiddle2
										{
											OFFSET -6.17441 0.00000 0.00000
											CHANNELS 3 Zrotation Xrotation Yrotation
											JOINT RightHandMiddle3
											{
												OFFSET -3.56743 0.00000 0.00000
												CHANNELS 3 Zrotation Xrotation Yrotation
												End site
												{
													OFFSET 0.00000 0.00000 0.00000
												}
											}
										}
									}
									JOINT RightHandRing1
									{
										OFFSET -12.69180 0.00000 -3.06433
										CHANNELS 3 Zrotation Xrotation Yrotation
										JOINT RightHandRing2
										{
											OFFSET -5.62556 0.00000 0.00000
											CHANNELS 3 Zrotation Xrotation Yrotation
											JOINT RightHandRing3
											{
												OFFSET -3.56744 0.00000 0.00000
												CHANNELS 3 Zrotation Xrotation Yrotation
												End site
												{
													OFFSET 0.00000 0.00000 0.00000
												}
											}
										}
									}
									JOINT RightHandPinky1
									{
										OFFSET -11.11390 0.00000 -6.03719
										CHANNELS 3 Zrotation Xrotation Yrotation
										JOINT RightHandPinky2
										{
											OFFSET -4.52789 0.00000 0.00000
											CHANNELS 3 Zrotation Xrotation Yrotation
											JOINT RightHandPinky3
											{
												OFFSET -2.46976 0.00000 0.00000
												CHANNELS 3 Zrotation Xrotation Yrotation
												End site
												{
													OFFSET 0.00000 0.00000 0.00000
												}
											}
										}
									}
								}
							}
						}
					}
					JOINT LeftShoulder
					{
						OFFSET 0.01000 7.91373 5.19711
						CHANNELS 3 Zrotation Xrotation Yrotation
						JOINT LeftArm
						{
							OFFSET 18.41580 0.00000 0.00000
							CHANNELS 3 Zrotation Xrotation Yrotation
							JOINT LeftForeArm
							{
								OFFSET 29.11090 0.00000 0.00000
								CHANNELS 3 Zrotation Xrotation Yrotation
								JOINT LeftHand
								{
									OFFSET 24.65040 0.00000 0.00000
									CHANNELS 3 Zrotation Xrotation Yrotation
									JOINT LeftHandThumb1
									{
										OFFSET 5.35114 -0.85590 3.97906
										CHANNELS 3 Zrotation Xrotation Yrotation
										JOINT LeftHandThumb2
										{
											OFFSET 4.52789 0.00000 0.00000
											CHANNELS 3 Zrotation Xrotation Yrotation
											JOINT LeftHandThumb3
											{
												OFFSET 2.46977 0.00000 0.00000
												CHANNELS 3 Zrotation Xrotation Yrotation
												End site
												{
													OFFSET 0.00000 0.00000 0.00000
												}
											}
										}
									}
									JOINT LeftHandIndex1
									{
										OFFSET 14.26970 0.00000 2.88139
										CHANNELS 3 Zrotation Xrotation Yrotation
										JOINT LeftHandIndex2
										{
											OFFSET 5.48836 0.00000 0.00000
											CHANNELS 3 Zrotation Xrotation Yrotation
											JOINT LeftHandIndex3
											{
												OFFSET 3.01859 0.00000 0.00000
												CHANNELS 3 Zrotation Xrotation Yrotation
												End site
												{
													OFFSET 0.00000 0.00000 0.00000
												}
											}
										}
									}
									JOINT LeftHandMiddle1
									{
										OFFSET 14.26970 0.00000 -0.09147
										CHANNELS 3 Zrotation Xrotation Yrotation
										JOINT LeftHandMiddle2
										{
											OFFSET 6.17440 0.00000 0.00000
											CHANNELS 3 Zrotation Xrotation Yrotation
											JOINT LeftHandMiddle3
											{
												OFFSET 3.56744 0.00000 0.00000
												CHANNELS 3 Zrotation Xrotation Yrotation
												End site
												{
													OFFSET 0.00000 0.00000 0.00000
												}
											}
										}
									}
									JOINT LeftHandRing1
									{
										OFFSET 12.69180 0.00000 -3.06433
										CHANNELS 3 Zrotation Xrotation Yrotation
										JOINT LeftHandRing2
										{
											OFFSET 5.62556 0.00000 0.00000
											CHANNELS 3 Zrotation Xrotation Yrotation
											JOINT LeftHandRing3
											{
												OFFSET 3.56744 0.00000 0.00000
												CHANNELS 3 Zrotation Xrotation Yrotation
												End site
												{
													OFFSET 0.00000 0.00000 0.00000
												}
											}
										}
									}
									JOINT LeftHandPinky1
									{
										OFFSET 11.11390 0.00000 -6.03719
										CHANNELS 3 Zrotation Xrotation Yrotation
										JOINT LeftHandPinky2
										{
											OFFSET 4.52789 0.00000 0.00000
											CHANNELS 3 Zrotation Xrotation Yrotation
											JOINT LeftHandPinky3
											{
												OFFSET 2.46976 0.00000 0.00000
												CHANNELS 3 Zrotation Xrotation Yrotation
												End site
												{
													OFFSET 0.00000 0.00000 0.00000
												}
											}
										}
									}
								}
							}
						}
					}
					JOINT pCube4
					{
						OFFSET 0.00000 10.91090 1.10792
						CHANNELS 3 Zrotation Xrotation Yrotation
						End site
						{
							OFFSET 0.00000 0.00000 0.00000
						}
					}
				}
			}
		}
	}
	JOINT RightUpLeg
	{
		OFFSET -9.98441 0.00000 0.00000
		CHANNELS 3 Zrotation Xrotation Yrotation
		JOINT RightLeg
		{
			OFFSET 0.00000 -42.11790 0.00000
			CHANNELS 3 Zrotation Xrotation Yrotation
			JOINT RightFoot
			{
				OFFSET 0.00000 -45.00020 -0.00001
				CHANNELS 3 Zrotation Xrotation Yrotation
				JOINT RightForeFoot
				{
					OFFSET 0.00000 -3.74820 0.00000
					CHANNELS 3 Zrotation Xrotation Yrotation
					JOINT RightToeBase
					{
						OFFSET 0.00000 0.06325 14.43120
						CHANNELS 3 Zrotation Xrotation Yrotation
						End site
						{
							OFFSET 0.00000 0.00000 0.00000
						}
					}
				}
			}
		}
	}
	JOINT LeftUpLeg
	{
		OFFSET 9.98441 0.00000 0.00000
		CHANNELS 3 Zrotation Xrotation Yrotation
		JOINT LeftLeg
		{
			OFFSET 0.00000 -42.11800 0.00000
			CHANNELS 3 Zrotation Xrotation Yrotation
			JOINT LeftFoot
			{
				OFFSET 0.00000 -45.00070 0.00000
				CHANNELS 3 Zrotation Xrotation Yrotation
				JOINT LeftForeFoot
				{
					OFFSET 0.00000 -3.74824 0.00000
					CHANNELS 3 Zrotation Xrotation Yrotation
					JOINT LeftToeBase
					{
						OFFSET 0.00000 0.06325 14.43110
						CHANNELS 3 Zrotation Xrotation Yrotation
						End site
						{
							OFFSET 0.00000 0.00000 0.00000
						}
					}
				}
			}
		}
	}
}
MOTION
Frames: 4
Frame Time: 0.050000
0.02801883435385189 -0.0030361345295351694 0.017031775150878208 0.02323092157542036 0.03876798814853213 -0.0012330904365484305 -0.04531877551705214 3.1052785314042834 -1.3292131816898622 -0.449330710124099 3.432012883040851 0.2662160224467012 -0.4570911814228179 -1.2366796051297624 -1.5963594804463417 -0.8571973247616491 -0.6777715391667705 -0.7134592327708204 -1.5108403606549772 10.966158386448532 2.327698003910004 0.14968233532448216 -0.5779686413881959 5.651022211441539 -0.5465989067063615 -15.507591682682728 0.5089748591454122 -1.8534919557304803 1.4426616175178704 -12.792757989145446 70.52150370911586 5.7840446066561855 14.396517991286922 -0.923580301597655 8.656021636977417 83.36347955057816 21.25759822928443 -0.3632606092731816 -2.7032577032520515 4.490108213704189 -0.1378456221725556 -1.5993243235067958 -0.0240871852158678 0.032255110127343 -56.27962301134488 0.019317038578534496 -0.038169179848367485 -56.20373026542875 -38.80447639030529 -0.001700778358226193 0.0059442573448438615 -0.04127743479098815 0.006774856591192543 0.03717337021094234 0.03484943162807981 -0.041673518622510265 0.046078746119485835 -36.66753353374501 -0.004605369726584219 -0.03406485856517577 0.04887077457682576 -0.025115016310744052 0.01814317310781265 -0.011991788536622652 0.030202178239459077 0.03304306091785692 -19.7738488422412 -0.03722065451092856 0.01623084116956823 -0.014468188352540818 0.01505440979423707 0.004531907622244865 0.026163553554480985 -0.031424467010413924 0.022669212009996227 24.09214391213282 0.0476380175489938 -0.007076957434644034 28.871910530249355 0.02033322333225223 -0.014047630367060577 28.832595317971855 -0.013529858464573843 -0.009527974560999184 7.937609721890513 2.02338025565082 11.277724258689926 -63.38532656987134 13.351363326316102 -36.64702800990301 11.934948941623547 -7.973495493527056 -70.27671899207701 -19.451337009584815 -0.09867563020615384 2.23448664856372 -0.46816420201914616 0.06278801686424627 -8.10334727910783 -0.046881511156722254 -0.009668612995586455 44.53802045410106 0.04184263514419256 0.0025595165883310913 44.56255985604313 12.487126050182265 -5.909297093945952e-06 -0.0339811542634925 -0.002606175281300068 0.0007175221206720061 -0.017757626850763646 0.006299117606384277 0.03679358730201412 0.033550954354204465 11.13078443829843 -0.03358087069049109 -0.04666595362535426 -0.025625276556388025 -0.043494348900916024 -0.004180373645021046 -0.020925459203359763 0.03748946029408883 -0.018059869632552975 4.7304003695293995 0.02223620055306632 -0.03755714079058426 0.005279362247643965 -0.0438433942907558 0.02738549848293154 0.011579402087737603 0.039981815632917396 0.04088308150239953 -5.589566718811752 -0.011370199935024866 0.03004516315824989 -6.758068851742944 -0.003728149634713082 0.018496289781378017 -6.694328407257894 0.02173511542530628 0.007708974876449048 0.03912882948134963 0.020162723040502848 0.03942070799447861 8.005354163969768 3.5316292547865853 -19.26112545591946 0.035853991276358604 10.356388965561646 0.060956085357782505 -5.599969666484689 -15.64267233783737 3.210368893328271 -0.03359769462185656 0.030035163206073832 0.026873523508077896 0.035076635762255524 4.679734757444185 -0.01009823485307149 12.428932128531173 -8.271923020521644 6.924511745709406 0.01279383625494288 46.4142039890107 -0.006699360773551348 -4.327614600366623 -14.73869208333466 -3.8666912833028917 0.030017891659645204 -0.03992333942564499 0.008825861958965061 0.034164306922309436 -10.751799500101406 -0.0078010303233216555 
-0.005640719884412344 0.023492524696193975 0.007665581132904946 0.022822623989613464 -0.03975024990734783 0.03523064745322796 -0.12642842534620283 3.273007555212221 -1.25432971251099 -0.533392488760816 3.378472429226439 0.2855290120089833 -0.5286828549831025 -1.1822211331229087 -1.7174279040012395 -0.8392428378955604 -0.59219970482372 -0.7387180237271675 -1.5351686475418385 10.690447725088177 2.4609812713816623 0.12328099093782716 -0.6292742999446626 5.9894168489145265 -0.6643436365780895 -15.644260761954337 0.5419727074240298 -1.6411794612065977 1.400600969288997 -12.74319054979802 70.66926462339737 5.052470963467051 13.871224460936842 -1.4480955675253855 8.623064342944494 82.51989509988282 20.669469469358493 -0.41557900824458627 -2.446422444825788 4.567429079600155 -0.11382114356354138 -1.5482342888555511 0.006534667917678628 0.02173024445741984 -56.21243042558403 0.02170252561620121 0.04699031123098419 -56.188093561761896 -38.75628775346687 0.008504577908684984 -0.005256874093965077 -0.028978581092031473 0.018702890464413615 -0.0001812133265437259 -0.011208773776061371 -0.04241435217632097 0.006085700214115896 -36.67934216195734 -0.003973690083925129 0.0030405748969444756 -0.028024060084888894 -0.01948300440635335 0.014290584473240366 0.028560811829283116 0.027240541822570366 -0.00922215228429232 -19.777263345946423 0.0368234066470746 -0.02235802470950127 0.02461670677188943 -0.019764462347886473 -0.009202002471490164 0.005930661889740019 -0.020221807759633895 0.033306630567786495 24.055559641540256 -0.012333000537380515 -0.020930242965330758 28.90691148829541 0.013930944067265298 -0.00410028876176277 28.903284165994 0.008484333993692398 -0.04297039338832159 7.657371834812573 2.0415847525223745 11.019893513023773 -63.37020329075501 14.189502461682732 -36.018236457748344 12.77377325679052 -8.61947487008757 -69.72595806253331 -18.436186076695627 -0.2421043544700184 2.569861033059744 -0.51266483794707 0.07976928493282562 -8.142808627893926 0.02674322256862204 -0.03930716399678795 44.55502269572727 0.004887134665147537 -0.03443697908807996 44.53436237589987 12.486901025358057 0.009943623810931264 -0.020518669822307604 -0.03928336548561892 -0.011018107293300633 0.04336597867765671 -0.0373759163151279 -0.04873719979159363 -0.049988832796962805 11.07670622051266 -0.028071209848847128 -0.023541581520628647 0.03905387573618712 -0.020136624566624853 -0.01726830306070439 0.012716717240407186 0.005849989324874896 0.01391124030893389 4.753829110581122 -0.011395587826786404 0.019490521600903612 0.019413360713863348 0.00438892576386863 0.024605989749986075 -0.02000784905452728 0.0483825172496936 0.03162030863852045 -5.633792422676032 -0.03850646758914264 0.02716564580434517 -6.769751637225481 -0.00034927609446672875 0.02129088783356916 -6.741513425016381 0.0026189985876414077 -0.027394305089128195 0.035227220392469914 0.00794805188245509 -0.03749209871026764 8.034165610088738 3.478232681428458 -19.178732943303615 -0.011689051326242835 10.383538106675786 0.05319873710705954 -5.639505332275817 -15.627922499918625 3.1515990124365576 0.006094310975192465 0.03227515456396071 -0.02921580881551222 0.007505034497726892 4.702448838158814 -0.04480832887427136 12.49091219165938 -8.215725910601924 6.840815514778434 0.015909589280427173 46.35621366013537 0.01188563653560933 -4.302985117089324 -14.69990793282484 -3.8557057902050267 0.00914757564086494 0.022185367259292973 -0.020618793876228076 0.030173038386971485 -10.748327549150858 0.026079332328256946 
-0.00045763973108748463 -0.0018954381516838013 -0.0389737737151843 0.007201388466044416 -0.0034267972371093006 -0.008430295076732404 -0.261557399165762 3.3534484094974046 -1.245558315401708 -0.5347762250596855 3.3814733996259942 0.2662046802976612 -0.5075350204066734 -1.218656443247849 -1.8335219304317252 -0.9118680222371762 -0.5920470419853052 -0.8036689987920412 -1.5431901908170405 10.528806102363307 2.582523592436643 0.07153174460106379 -0.7858246094982912 6.290762304496021 -0.6456740864311687 -15.801337907308097 0.5656387432226473 -1.6108653370174881 1.3090667987734577 -12.715299968430205 70.78689440531333 3.9511163858137914 13.534046641702275 -2.318959269966768 8.674492383356087 81.15226328699988 20.92414071006297 -0.4316801087752502 -2.118014234193617 4.525050776858329 -0.09826176465293705 -1.595064972751634 -0.04216135195122403 -0.025263045913458782 -56.234336442317385 0.008722234405341433 0.015050303461751048 -56.2711243092327 -38.758902775995516 0.024697973510101615 -0.012984264753927431 0.011915975249658511 -0.04263270302183862 -0.013848508532528017 0.04008106304348696 -0.04746943659387156 -0.00857564123671711 -36.66865597881048 -0.005781795634690021 0.01682074508079513 -0.04345795339616931 0.03370142364408141 -0.03648404259704191 -0.014674966494394827 0.03889736715766636 -0.026452641459581032 -19.737608249704607 -0.0035327446763372436 -0.007147446040206291 0.011141590825240164 -0.004998253785268254 -0.008434776024142282 0.027597956198013703 0.0009216592495166159 -0.0001965340586380407 24.092728650780337 0.012358470137924243 -0.02276196357696359 28.87103562233791 -0.046012288253216835 -0.004833146223165344 28.845343605086136 -0.0016659084411391007 0.0430916802118427 7.510690752410942 1.950665490217421 10.935140235261722 -63.964948922360755 14.418373928917303 -35.20819119463227 11.588242000691993 -8.085649425838625 -68.16288741152603 -18.61069616082817 -0.2535588227661161 2.8838046613250223 -0.4917365479576588 0.10781258081265763 -8.138114777781688 0.038235396644218024 0.006705215515625723 44.603464387821255 0.04735635414577403 -0.029216492540732195 44.54201417889083 12.484504765518269 0.012962633941537257 -0.04688251268455329 -0.0063734120479883305 -0.033561675354200717 0.03859850384379365 0.024503810771842636 -0.0409167092751087 -0.032817856728384664 11.087283002009674 0.03439177704028312 0.037989863111134364 0.006414404322454593 -0.019575606896779434 0.04715162878977056 -0.04558261429820764 0.0117130447913266 0.009914846121141754 4.760633701329781 0.049642944220456155 -0.04530156892085746 0.031051262670794565 -0.03352349374286038 0.011900331401142486 -0.03521823742608582 0.047812674377281525 0.02302151035604121 -5.591068080797777 -0.029986308597914783 -0.043856276664376165 -6.71903618654454 0.014126860569094991 0.047125636041245596 -6.697593892722425 -0.025916192570967195 0.045006371728561215 0.02896933478239211 -0.005959746188269777 0.04908812760642072 8.093724361352683 3.471708070269941 -19.258440578255907 0.03704588157595265 10.363661859208149 -0.02367418860778511 -5.634696468105162 -15.641378145835294 3.213809204823419 -0.013074520235896952 0.03185220792677342 -0.03418693979357901 -0.012468847554354052 4.667695703995545 0.013306034820045685 12.415152146454822 -8.225021648812039 6.864367084348656 -0.030221773121835285 46.42642178903985 0.00209688050502897 -4.367167359917124 -14.795101437357001 -3.850586113960776 0.03434992525080203 0.014149026824889093 0.028660391824074438 0.013275729419361912 -10.787805344004054 0.009664282101477297 
0.016176815971541247 -0.04139393877556178 0.02072990247202792 -0.02869170337062703 0.0392392487963243 -0.04936427246600286 -0.2897720273665186 3.4460339918646237 -1.2919352047283248 -0.5081361636617754 3.3563378518662734 0.26021853348071083 -0.49029754741756837 -1.206965921365112 -1.9369709412441098 -0.9166263149751397 -0.6683644474828634 -0.8442048692249802 -1.4945119145555634 10.50332312770918 2.6684373169896776 0.08694164542919047 -0.8565634576587706 6.564235308082326 -0.6800079293102563 -15.810793168942315 0.5808413863062675 -1.7430885636230327 1.3699950849051628 -12.701188102715566 70.49769050072754 1.3934906377116412 13.721392667768773 -3.697559020245078 8.615466664359602 79.43618769157285 21.16178727864493 -0.4406816169340642 -1.707671635332867 4.575955028936763 -0.14812310746055474 -1.6275750024643574 0.034541047365875224 0.04417977009477887 -56.219572330213985 0.0436565892311546 0.018018062680595675 -56.256162339861966 -38.73639968256238 0.019953385460062145 0.04683681321751702 -0.005467181186718882 -0.025711249473025093 0.04024018421454219 0.007157381964992967 0.008643830265446024 -0.0288634751341263 -36.72396246292056 -0.007469519966336029 -0.043784546792780384 -0.04383571531542202 -0.041379482403286295 0.04453524247065961 0.042098057503439784 -0.04425388074417631 -0.001311899579446995 -19.72881612402891 0.01819609325530225 0.00917714368927413 0.02590737390309798 -0.03845794675739983 -0.0004939341062564858 -0.0362078750736972 -0.027996965167148367 0.02305146445344845 24.082131195545113 0.00037202561322443657 -0.01447308608732353 28.82857379930965 0.04803922307559123 0.02942752486666409 28.90243711062602 0.015807513839208507 -0.010267205651711893 7.5316639048986245 2.0210059865858283 10.783585835684375 -64.48426298712073 13.632606384088987 -35.09094854872909 10.251936747363441 -7.177765108922737 -66.50930401527447 -18.758056260884597 0.05967773795519523 2.811517241289355 -0.4677857840562329 0.0853017108583552 -8.156674899812337 0.046161152356207644 -0.01996707976383709 44.60212186910645 0.002992098963765324 -0.03855697974730552 44.557627182077574 12.458639288623745 0.03673794795831732 0.02952552386668458 -0.028034972612965815 -0.024091182377286344 -0.04348957784813568 -0.012099724963758248 0.00590158351496244 0.03242343957003037 11.119740754200278 0.020212720440261626 -0.0447088995928299 0.013254656656311686 0.02869260738346246 -0.04728661117730082 0.04186446486394836 0.028813952293548755 0.029208611894143435 4.797304586459467 0.01846335790216711 0.04948189280445356 -0.013280168822258184 0.031316756712075455 -0.025558001331227712 0.02929425681069287 -0.015317387474680958 -0.032985838165441476 -5.595847961607565 -0.008171963163629314 -0.020815865406769746 -6.67846316667164 0.008817964868500132 -0.017954915098050698 -6.744904631787904 0.002618193886082113 0.010034939462822851 0.031267171880995134 -0.00013189247440770856 0.044797774595639814 8.051452837030594 3.4566089551834165 -19.18557338008623 -0.04992062330822863 10.34821833589903 -0.03140576184349278 -5.617785977447895 -15.686168512179355 3.2199932224321883 0.04624939650355351 0.043696512797878825 -0.04660759602265435 -0.016137295471235345 4.666000302156447 -0.021595175618409953 12.439927254725456 -8.255518153696173 6.881644600522505 -0.006594389170619915 46.38883378756542 -0.03405480007871157 -4.361331936210454 -14.766828013987872 -3.793739059949141 0.0197582964886926 -0.03438564729691207 0.01172156950660167 0.0006546432192852007 -10.719537211169383 0.008516781679935472 
